<svg width="13" height="21" viewBox="0 0 13 21" fill="none" xmlns="http://www.w3.org/2000/svg">
<path d="M11.134 11.8625C12.3463 10.6062 13.0158 8.93281 13.0158 7.15625C13.0158 5.37734 12.3486 3.70625 11.134 2.45C9.92168 1.19375 8.30677 0.5 6.59235 0.5C4.87793 0.5 3.26303 1.19141 2.05072 2.45C0.838414 3.70859 0.16893 5.37734 0.16893 7.15625C0.16893 8.65156 0.64164 10.0719 1.51242 11.232C1.67753 11.4523 1.85621 11.6609 2.04846 11.8625C2.24071 12.0617 2.44427 12.2469 2.65461 12.418C3.55027 13.1398 4.60652 13.5992 5.73288 13.7539V16.25H3.15446C3.05495 16.25 2.97352 16.3344 2.97352 16.4375V17.8438C2.97352 17.9469 3.05495 18.0312 3.15446 18.0312H5.73288V21.3125C5.73288 21.4156 5.8143 21.5 5.91382 21.5H7.27088C7.3704 21.5 7.45182 21.4156 7.45182 21.3125V18.0312H10.0302C10.1298 18.0312 10.2112 17.9469 10.2112 17.8438V16.4375C10.2112 16.3344 10.1298 16.25 10.0302 16.25H7.45182V13.7539C8.84281 13.5617 10.1252 12.9078 11.134 11.8625ZM6.59235 12.0312C5.33481 12.0312 4.15643 11.525 3.26529 10.6039C2.37642 9.68281 1.88787 8.45937 1.88787 7.15625C1.88787 5.85313 2.37642 4.63203 3.26529 3.70859C4.15417 2.78516 5.33481 2.28125 6.59235 2.28125C7.8499 2.28125 9.02828 2.7875 9.91941 3.70859C10.8083 4.62969 11.2968 5.85313 11.2968 7.15625C11.2968 8.45937 10.8083 9.68047 9.91941 10.6039C9.02828 11.525 7.8499 12.0312 6.59235 12.0312Z" fill="url(#paint0_linear_6_756)"/>
<defs>
<linearGradient id="paint0_linear_6_756" x1="6.59235" y1="0.5" x2="6.59235" y2="21.5" gradientUnits="userSpaceOnUse">
<stop stop-color="#BB00FD"/>
<stop offset="1" stop-color="#00FFD6"/>
</linearGradient>
</defs>
</svg>
