<svg width="21" height="15" viewBox="0 0 21 15" fill="none" xmlns="http://www.w3.org/2000/svg">
<path d="M7.10294 0.705887C5.82027 0.705887 4.56641 1.10435 3.49991 1.8509C2.4334 2.59745 1.60217 3.65854 1.11131 4.90001C0.620455 6.14147 0.492025 7.50754 0.742261 8.82547C0.992498 10.1434 1.61016 11.354 2.51715 12.3042C3.42413 13.2543 4.5797 13.9014 5.83772 14.1636C7.09575 14.4257 8.39972 14.2912 9.58476 13.7769C10.7698 13.2627 11.7827 12.3919 12.4953 11.2746C13.2079 10.1573 13.5882 8.84375 13.5882 7.5C13.5882 5.69809 12.905 3.96998 11.6887 2.69584C10.4725 1.42169 8.82295 0.705887 7.10294 0.705887ZM7.10294 9.53824C6.71814 9.53824 6.34198 9.4187 6.02203 9.19473C5.70208 8.97077 5.45271 8.65244 5.30545 8.28C5.1582 7.90756 5.11967 7.49774 5.19474 7.10236C5.26981 6.70698 5.45511 6.34381 5.7272 6.05875C5.9993 5.7737 6.34597 5.57958 6.72338 5.50093C7.10078 5.42229 7.49198 5.46265 7.84749 5.61692C8.203 5.77119 8.50685 6.03243 8.72064 6.36762C8.93442 6.70281 9.04853 7.09688 9.04853 7.5C9.04887 7.76777 8.99878 8.03297 8.90113 8.28042C8.80347 8.52788 8.66017 8.75271 8.47944 8.94205C8.29871 9.13139 8.08409 9.28151 7.84789 9.38381C7.61169 9.48612 7.35853 9.5386 7.10294 9.53824Z" fill="#00AEEF"/>
<path d="M14.7012 5.80148C16.349 6.29826 18.2941 5.80148 18.2941 5.80148C17.7296 8.38324 15.9397 10.0002 13.3585 10.197C12.858 11.4141 12.028 12.4508 10.9711 13.179C9.9142 13.9072 8.67675 14.2948 7.41177 14.2941L9.35735 7.81579C11.3574 1.15702 12.3826 0.705887 17.1257 0.705887H20.3824C19.8376 3.21971 17.96 5.14 14.7012 5.80148Z" fill="#008CCF"/>
</svg>
