<svg width="25" height="25" viewBox="0 0 25 25" fill="none" xmlns="http://www.w3.org/2000/svg">
    <g clip-path="url(#clip0_20_830)">
        <path d="M9.1797 5.11719C9.76564 3.59375 13.9453 0.78125 13.9453 0.78125C13.9453 0.78125 15.2734 5.82031 14.7266 7.30469C14.1797 8.82812 12.5 9.53125 10.9766 8.94531C9.41407 8.32031 8.63282 6.60156 9.1797 5.11719Z" fill="#51C63E"/>
        <path d="M6.71875 8.125C6.01563 6.67969 7.03125 1.67969 7.03125 1.67969C7.03125 1.67969 11.4844 4.29688 12.1484 5.78125C12.8125 7.22656 12.1484 8.94531 10.625 9.60937C9.14063 10.2344 7.38282 9.57031 6.71875 8.125Z" fill="#2F8938"/>
        <path d="M8.08594 6.71875C6.64062 6.05468 1.67969 7.03124 1.67969 7.03124C1.67969 7.03124 4.29687 11.5234 5.74219 12.2266C7.1875 12.8906 8.90625 12.2266 9.53125 10.7031C10.1953 9.17968 9.53125 7.38281 8.08594 6.71875Z" fill="#51C63E"/>
        <path d="M5.07813 9.21875C3.59375 9.80468 0.78125 14.0234 0.78125 14.0234C0.78125 14.0234 5.78125 15.3516 7.30469 14.8047C8.78906 14.2578 9.53125 12.5391 8.90625 11.0156C8.28125 9.45312 6.60156 8.67187 5.07813 9.21875Z" fill="#2F8938"/>
        <path d="M20.1172 6.52344C24.6094 11.0547 25.1172 20.8594 23.0078 23.0078C20.8594 25.1562 11.1328 24.6094 6.60155 20.0781C3.28124 16.7578 4.84374 11.7187 8.28124 8.24219C11.7578 4.76562 16.7969 3.20312 20.1172 6.52344Z" fill="#FF1800"/>
        <path d="M15.8984 6.13281C15.7031 6.13281 15.5078 6.21094 15.3906 6.36719C15.1953 6.67969 15.3516 7.14844 15.8203 7.46094C16.0547 7.61719 16.2891 7.69531 16.4844 7.69531C16.6797 7.69531 16.875 7.61719 16.9531 7.46094C17.1484 7.14844 16.9922 6.67969 16.5234 6.36719C16.3672 6.21094 16.1328 6.13281 15.8984 6.13281ZM17.3437 12.9688C17.2266 12.9688 17.1094 13.0078 16.9922 13.0859C16.7187 13.3203 16.7969 13.8281 17.1094 14.2578C17.3437 14.5312 17.6562 14.6875 17.8906 14.6875C18.0078 14.6875 18.125 14.6484 18.2422 14.5703C18.5156 14.3359 18.4375 13.8281 18.125 13.3984C17.8906 13.125 17.5781 12.9688 17.3437 12.9688ZM13.9844 9.60938C13.8672 9.60938 13.75 9.64844 13.6328 9.72656C13.3594 9.96094 13.3984 10.4688 13.75 10.8984C13.9844 11.1719 14.2969 11.3281 14.5312 11.3281C14.6484 11.3281 14.7656 11.2891 14.8828 11.2109C15.1562 10.9766 15.1172 10.4688 14.7656 10.0391C14.5312 9.76563 14.2187 9.60938 13.9844 9.60938ZM19.7266 10C19.6484 10 19.5703 10 19.4922 10.0391C19.1797 10.1953 19.1406 10.7422 19.375 11.2109C19.5703 11.5625 19.8828 11.7969 20.1953 11.7969C20.2734 11.7969 20.3516 11.7969 20.4297 11.7578C20.7422 11.6016 20.7812 11.0547 20.5469 10.5859C20.3516 10.2344 20 10 19.7266 10ZM21.5234 15.1562H21.4062C21.0547 15.2344 20.8594 15.7422 21.0156 16.25C21.1328 16.7187 21.4453 17.0312 21.7969 17.0312H21.9141C22.2656 16.9531 22.4609 16.4453 22.3047 15.9375C22.1484 15.4687 21.8359 15.1562 21.5234 15.1562ZM21.0547 20C20.9375 20 20.7812 20.0391 20.7031 20.1172C20.4297 20.3516 20.5078 20.8984 20.8594 21.2891C21.0937 21.5625 21.4062 21.6797 21.6406 21.6797C21.7578 21.6797 21.9141 21.6406 21.9922 21.5625C22.2656 21.3281 22.1875 20.7812 21.8359 20.3906C21.6016 20.1562 21.3281 20 21.0547 20ZM12.3828 19.4141C12.1875 19.4141 11.9922 19.4922 11.875 19.6484C11.6797 19.9609 11.875 20.4297 12.3047 20.7422C12.5391 20.8984 12.7734 20.9766 12.9687 20.9766C13.1641 20.9766 13.3594 20.8984 13.4766 20.7422C13.6719 20.4297 13.4766 19.9609 13.0469 19.6484C12.8516 19.4922 12.6172 19.4141 12.3828 19.4141ZM7.89062 18.125C7.65624 18.125 7.49999 18.2031 7.3828 18.3594C7.18749 18.6719 7.3828 19.1406 7.81249 19.4531C8.04687 19.6094 8.28124 19.6875 8.47655 19.6875C8.67187 19.6875 8.86718 19.6094 8.98437 19.4531C9.17968 19.1406 8.98437 18.6719 8.55468 18.3594C8.3203 18.2031 8.08593 18.125 7.89062 18.125ZM16.25 21.2891C15.9375 21.2891 15.7031 21.4062 15.5859 21.6406C15.4687 21.9922 15.7422 22.4219 16.25 22.6172C16.4062 22.6953 16.6016 22.7344 16.7578 22.7344C17.0703 22.7344 17.3047 22.6172 17.4219 22.3828C17.5391 22.0312 17.2656 21.6016 16.7578 21.4062C16.6016 21.3281 16.4062 21.2891 16.25 21.2891ZM17.1484 17.3828C16.9141 17.3828 16.7187 17.4609 16.6016 17.6562C16.4062 17.9688 16.6406 18.4375 17.1094 18.7109C17.3047 18.8281 17.5391 18.9062 17.7344 18.9062C17.9687 18.9062 18.1641 18.8281 18.2812 18.6328C18.4766 18.3203 18.2422 17.8516 17.7734 17.5781C17.5391 17.4609 17.3437 17.3828 17.1484 17.3828ZM12.9687 14.6094C12.7734 14.6094 12.6172 14.6875 12.5391 14.8047C12.3047 15.0781 12.4609 15.5859 12.8516 15.9375C13.0859 16.1328 13.3594 16.2109 13.5937 16.2109C13.7891 16.2109 13.9453 16.1328 14.0234 16.0156C14.2578 15.7422 14.1016 15.2344 13.7109 14.8828C13.4766 14.7266 13.2031 14.6094 12.9687 14.6094ZM9.5703 9.33594C9.41405 9.33594 9.29687 9.375 9.17968 9.49219C8.90624 9.76562 9.02343 10.2734 9.37499 10.625C9.60937 10.8594 9.8828 10.9766 10.1562 10.9766C10.3125 10.9766 10.4297 10.9375 10.5469 10.8203C10.8203 10.5469 10.7031 10.0391 10.3516 9.6875C10.1172 9.45312 9.84374 9.33594 9.5703 9.33594ZM8.47655 13.5547C8.28124 13.5547 8.12499 13.6328 8.0078 13.75C7.77343 14.0234 7.92968 14.5312 8.35937 14.8828C8.59374 15.0781 8.86718 15.1562 9.06249 15.1562C9.2578 15.1562 9.41405 15.0781 9.53124 14.9609C9.76562 14.6875 9.60937 14.1797 9.17968 13.8281C8.9453 13.6719 8.67187 13.5547 8.47655 13.5547Z" fill="#FFF0F0"/>
    </g>
    <defs>
        <clipPath id="clip0_20_830">
            <rect width="25" height="25" fill="white"/>
        </clipPath>
    </defs>
</svg>
